<svg width="216" height="216" viewBox="0 0 216 216" fill="none" xmlns="http://www.w3.org/2000/svg">
<path d="M153 162C143.01 162 135 170.01 135 180C135 184.774 136.896 189.352 140.272 192.728C143.648 196.104 148.226 198 153 198C157.774 198 162.352 196.104 165.728 192.728C169.104 189.352 171 184.774 171 180C171 175.226 169.104 170.648 165.728 167.272C162.352 163.896 157.774 162 153 162ZM9 18V36H27L59.4 104.31L47.16 126.36C45.81 128.88 45 131.85 45 135C45 139.774 46.8964 144.352 50.2721 147.728C53.6477 151.104 58.2261 153 63 153H171V135H66.78C66.1833 135 65.611 134.763 65.189 134.341C64.7671 133.919 64.53 133.347 64.53 132.75C64.53 132.3 64.62 131.94 64.8 131.67L72.9 117H139.95C146.7 117 152.64 113.22 155.7 107.73L187.92 49.5C188.55 48.06 189 46.53 189 45C189 42.6131 188.052 40.3239 186.364 38.636C184.676 36.9482 182.387 36 180 36H46.89L38.43 18M63 162C53.01 162 45 170.01 45 180C45 184.774 46.8964 189.352 50.2721 192.728C53.6477 196.104 58.2261 198 63 198C67.7739 198 72.3523 196.104 75.7279 192.728C79.1036 189.352 81 184.774 81 180C81 175.226 79.1036 170.648 75.7279 167.272C72.3523 163.896 67.7739 162 63 162Z" fill="white"/>
</svg>
